<?xml version="1.0" standalone="no"?><!DOCTYPE svg PUBLIC "-//W3C//DTD SVG 1.1//EN" "http://www.w3.org/Graphics/SVG/1.1/DTD/svg11.dtd"><svg t="1595657826837" class="icon" viewBox="0 0 1024 1024" version="1.1" xmlns="http://www.w3.org/2000/svg" p-id="1496" xmlns:xlink="http://www.w3.org/1999/xlink" width="200" height="200"><defs><style type="text/css"></style></defs><path d="M1006.4 28.8l-3.2-11.2-9.6-1.6c-179.2-46.4-454.4 0-688 273.6-110.4-3.2-198.4 36.8-288 126.4l-16 16 216 144c-28.8 52.8-11.2 129.6 43.2 184s132.8 72 182.4 44.8L590.4 1024l16-16c91.2-91.2 131.2-180.8 126.4-291.2 272-236.8 320-508.8 273.6-688zM683.2 452.8c-65.6-3.2-116.8-59.2-113.6-124.8s59.2-116.8 124.8-113.6 116.8 59.2 113.6 124.8c-1.6 65.6-59.2 116.8-124.8 113.6zM121.6 816C86.4 851.2 64 958.4 64 958.4s104-17.6 144-56c30.4-30.4 35.2-73.6 11.2-97.6s-67.2-19.2-97.6 11.2z" p-id="1497"></path></svg>