<?xml version="1.0" standalone="no"?><!DOCTYPE svg PUBLIC "-//W3C//DTD SVG 1.1//EN" "http://www.w3.org/Graphics/SVG/1.1/DTD/svg11.dtd"><svg t="1595657824024" class="icon" viewBox="0 0 1024 1024" version="1.1" xmlns="http://www.w3.org/2000/svg" p-id="1377" xmlns:xlink="http://www.w3.org/1999/xlink" width="200" height="200"><defs><style type="text/css"></style></defs><path d="M881.62 782.693V430.165h-71.084v18.32H652.223v-0.738c0-19.43-15.752-35.181-35.182-35.181v-87.205c0-58.285-47.256-105.542-105.541-105.542h-71.839v-17.418c0-19.43-15.735-35.181-35.18-35.181h-15.375c-19.36 0-35.061 15.657-35.164 35h-19.823c-12.678 0-23.705 6.786-29.89 16.861H142.103v-0.825c0-19.273-15.633-34.906-34.906-34.906v195.694c19.273 0 34.906-15.633 34.906-34.906v-1.925h156.834v1.649c0 19.428 15.771 35.182 35.182 35.182h19.893c0.514 18.998 15.976 34.26 35.095 34.26h15.375c19.445 0 35.18-15.751 35.18-35.179v-19.061h37.381c9.721 0 17.589 7.875 17.589 17.591v35.91h-0.704c-19.428 0-35.181 15.751-35.181 35.181v0.738H213.185v-18.32h-71.082v88.69H89.332v139.985h52.771v123.853H89.332v52.05h844.336v-52.05H881.62z m-71.084 0H213.185v-52.754h597.352v52.754z" p-id="1378"></path></svg>