<?xml version="1.0" standalone="no"?><!DOCTYPE svg PUBLIC "-//W3C//DTD SVG 1.1//EN" "http://www.w3.org/Graphics/SVG/1.1/DTD/svg11.dtd"><svg t="1595657819725" class="icon" viewBox="0 0 1024 1024" version="1.1" xmlns="http://www.w3.org/2000/svg" p-id="1256" xmlns:xlink="http://www.w3.org/1999/xlink" width="200" height="200"><defs><style type="text/css"></style></defs><path d="M609.992 521.336c-117.824 0-213.336 95.504-213.336 213.328S492.168 948 609.992 948c117.832 0 213.336-95.504 213.336-213.336S727.824 521.336 609.992 521.336z m104.512 179.024l-122.752 122.744a15.68 15.68 0 0 1-7.592 4.224 15.912 15.912 0 0 1-16.8-3.632l-64.584-64.608a15.856 15.856 0 0 1 22.424-22.424l54.08 54.08 112.816-112.808a15.904 15.904 0 0 1 22.424 0 15.928 15.928 0 0 1-0.016 22.424zM193.592 457.416c0 7.264 5.888 13.176 13.176 13.176h395.76a13.2 13.2 0 0 0 13.2-13.176v-26.392c0-7.312-5.904-13.176-13.2-13.176H206.712a13.144 13.144 0 0 0-13.12 13.176v26.392zM206.768 628.904h-0.064a13.136 13.136 0 0 0-13.112 13.176v26.392c0 7.264 5.888 13.176 13.176 13.176h167.8a239.84 239.84 0 0 1 18.464-52.752H206.768z" p-id="1257"></path><path d="M140.824 839.968a26.392 26.392 0 0 1-26.392-26.392V233.136a26.392 26.392 0 0 1 26.392-26.392h52.768V154H88.032a26.36 26.36 0 0 0-26.368 26.392v685.968a26.352 26.352 0 0 0 26.368 26.352h338.184l0.752-0.832a241.52 241.52 0 0 1-34.168-51.912H140.824zM747.64 180.392a26.36 26.36 0 0 0-26.376-26.392H615.736v52.744h52.768a26.4 26.4 0 0 1 26.376 26.392v275.592a240.896 240.896 0 0 1 52.768 27.752V180.392z" p-id="1258"></path><path d="M246.36 259.528h26.376a26.4 26.4 0 0 0 26.392-26.392V127.608a26.4 26.4 0 0 0-26.392-26.392h-26.376a26.4 26.4 0 0 0-26.392 26.392v105.528a26.392 26.392 0 0 0 26.392 26.392zM325.504 154h158.304v52.744H325.504zM536.568 259.528h26.4a26.4 26.4 0 0 0 26.376-26.392V127.608a26.4 26.4 0 0 0-26.376-26.392h-26.4a26.4 26.4 0 0 0-26.376 26.392v105.528a26.4 26.4 0 0 0 26.376 26.392z" p-id="1259"></path></svg>