<?xml version="1.0" encoding="utf-8"?>
<!-- Generator: Adobe Illustrator 23.0.0, SVG Export Plug-In . SVG Version: 6.00 Build 0)  -->
<svg version="1.1" id="图层_1" xmlns="http://www.w3.org/2000/svg" xmlns:xlink="http://www.w3.org/1999/xlink" x="0px" y="0px"
	 viewBox="0 0 10.3 13.7" style="enable-background:new 0 0 10.3 13.7;" xml:space="preserve">
<style type="text/css">
	.st0{fill:#EBEFF2;}
	.st1{fill:#344A5F;}
</style>
<path class="st0" d="M0,8.6c0-0.9,0.5-2.1,1.3-3.5C1.6,4.6,2,4,2.4,3.4C3,2.7,3.5,1.9,4.1,1.3C4.3,1,4.5,0.7,4.8,0.4l0.1-0.1L5.2,0
	l0.3,0.4l0.1,0.1c0,0,0.1,0.1,0.2,0.2C5.9,0.8,6.1,1,6.3,1.3c0.6,0.7,1.1,1.4,1.6,2.1C8.3,4,8.7,4.6,9,5.1c0.8,1.4,1.3,2.5,1.3,3.5
	c0,2.9-2.3,5.2-5.2,5.2C2.3,13.7,0,11.4,0,8.6 M4.8,1.8C4.2,2.5,3.7,3.2,3.2,3.9C2.8,4.5,2.4,5,2.1,5.6c-0.8,1.3-1.2,2.3-1.2,3
	c0,2.4,1.9,4.3,4.3,4.3c2.4,0,4.3-1.9,4.3-4.3c0-0.7-0.4-1.7-1.2-3C7.9,5,7.6,4.5,7.2,3.9c-0.5-0.7-1-1.4-1.6-2.1
	C5.4,1.7,5.3,1.5,5.2,1.4C5,1.5,4.9,1.7,4.8,1.8"/>
<path class="st1" d="M5.2,12.2c-2,0-3.6-1.6-3.6-3.6c0-2,1.9-1,3.6,0c1.7,1,3.6-2,3.6,0C8.8,10.5,7.2,12.2,5.2,12.2"/>
</svg>
